<?xml version="1.0" encoding="utf-8"?>
<svg version="1.1" id="Capa_1" xmlns="http://www.w3.org/2000/svg" xmlns:xlink="http://www.w3.org/1999/xlink" x="0px" y="0px"
	 viewBox="0 0 140 140" style="enable-background:new 0 0 140 140;" xml:space="preserve">
<style type="text/css">
	.st0{fill:#010100;}
	.st1{fill:#8BB456;}
	.st2{fill:#009B48;stroke:#FFFFFF;stroke-width:0.25;stroke-miterlimit:10;}
	.st3{fill:url(#SVGID_1_);stroke:url(#SVGID_2_);stroke-width:3;stroke-miterlimit:10;}
	.st4{fill:#92C02E;stroke:#000000;stroke-width:0.75;stroke-miterlimit:10;}
	.st5{fill:#54B57B;stroke:#000000;stroke-miterlimit:10;}
	.st6{fill:none;stroke:#000000;stroke-miterlimit:10;}
	.st7{fill:#FFFFFF;stroke:#000000;stroke-width:0.75;stroke-miterlimit:10;}
	.st8{fill:#40C679;stroke:#000000;stroke-width:0.75;stroke-miterlimit:10;}
	.st9{fill:#88B153;stroke:#000000;stroke-miterlimit:10;}
	.st10{fill:#40C679;stroke:#000000;stroke-miterlimit:10;}
	.st11{fill:#009946;stroke:#000000;stroke-width:0.75;stroke-miterlimit:10;}
	.st12{fill:#88B153;stroke:#000000;stroke-width:0.75;stroke-miterlimit:10;}
	.st13{fill:#4A8537;stroke:#000000;stroke-width:0.75;stroke-miterlimit:10;}
	.st14{fill:#088038;stroke:#000000;stroke-width:0.75;stroke-miterlimit:10;}
	.st15{fill:#009A47;stroke:#000000;stroke-width:0.75;stroke-miterlimit:10;}
	.st16{fill:#89B254;stroke:#000000;stroke-width:0.75;stroke-miterlimit:10;}
</style>
<g>
	<g>
		<path class="st0" d="M15.2,112.2c-1.2,1.1-3.1,1.7-5.5,1.7c-2.7,0-4.6-0.6-5.8-1.9s-1.7-3.1-1.7-5.4v-8.5h1.4v8.5
			c0,2.1,0.5,3.6,1.5,4.6c1,0.9,2.5,1.4,4.5,1.4c2.2,0,3.8-0.5,4.7-1.5s1.3-2.5,1.3-4.5v-8.5H17v8.5C17,109.2,16.4,111.1,15.2,112.2
			z"/>
		<path class="st0" d="M37.1,98.1v15.4h-1.7L23.9,99.9v13.6h-1.4V98.1h1.7l11.5,13.6V98.1H37.1z"/>
		<path class="st0" d="M56.1,106.9c0.6,0.7,0.9,1.5,0.9,2.5c0,1.2-0.5,2.3-1.4,3c-0.9,0.8-2.2,1.1-3.8,1.1H43V98.1h8.3
			c1.5,0,2.7,0.4,3.6,1.1c0.9,0.7,1.3,1.7,1.3,2.8c0,0.8-0.2,1.5-0.7,2.1c-0.4,0.6-1.1,1-1.9,1.3C54.7,105.7,55.5,106.2,56.1,106.9z
			 M53.9,100c-0.6-0.5-1.5-0.8-2.7-0.8h-6.8v5.8h7.1c1.1,0,1.9-0.3,2.5-0.8s0.9-1.2,0.9-2.1C54.8,101.3,54.5,100.5,53.9,100z
			 M54.5,111.6c0.7-0.6,1-1.3,1-2.3s-0.3-1.7-1-2.3c-0.7-0.6-1.6-0.8-2.9-0.8h-7.2v6.2h7.2C52.8,112.4,53.8,112.1,54.5,111.6z"/>
		<path class="st0" d="M72.9,109.3h-9.8l-2.1,4.2h-1.5l7.8-15.4h1.5l7.8,15.4h-1.5L72.9,109.3z M72.3,108.2L68,99.5l-4.4,8.7H72.3z"
			/>
		<path class="st0" d="M99,98.1v15.4h-1.4v-13.2l-7.1,13.2h-1.3L82,100.2v13.3h-1.4V98.1h1.7l7.5,14l7.5-14H99z"/>
		<path class="st0" d="M118,106.9c0.6,0.7,0.9,1.5,0.9,2.5c0,1.2-0.5,2.3-1.4,3c-0.9,0.8-2.2,1.1-3.8,1.1h-8.8V98.1h8.3
			c1.5,0,2.7,0.4,3.6,1.1s1.3,1.7,1.3,2.8c0,0.8-0.2,1.5-0.7,2.1c-0.4,0.6-1.1,1-1.9,1.3C116.6,105.7,117.4,106.2,118,106.9z
			 M115.8,100c-0.6-0.5-1.5-0.8-2.7-0.8h-6.8v5.8h7.1c1.1,0,1.9-0.3,2.5-0.8s0.9-1.2,0.9-2.1C116.8,101.3,116.4,100.5,115.8,100z
			 M116.4,111.6c0.7-0.6,1-1.3,1-2.3s-0.3-1.7-1-2.3c-0.7-0.6-1.6-0.8-2.9-0.8h-7.2v6.2h7.2C114.8,112.4,115.7,112.1,116.4,111.6z"
			/>
		<path class="st0" d="M136.4,112.2c-1.2,1.1-3.1,1.7-5.5,1.7c-2.7,0-4.6-0.6-5.8-1.9c-1.1-1.3-1.7-3.1-1.7-5.4v-8.5h1.4v8.5
			c0,2.1,0.5,3.6,1.5,4.6c1,0.9,2.5,1.4,4.5,1.4c2.2,0,3.8-0.5,4.7-1.5s1.3-2.5,1.3-4.5v-8.5h1.4v8.5
			C138.2,109.2,137.6,111.1,136.4,112.2z M133.4,92.9l0.9,0.7l-3.5,3.5l-0.8-0.7L133.4,92.9z"/>
	</g>
</g>
<g>
	<path class="st1" d="M4.8,118H2.7v2.2h1.7v1.1H2.7v3.5H1.5v-7.9h3.3V118z"/>
	<path class="st1" d="M6.8,123.7h2v1.1H5.6v-7.9h1.2V123.7z"/>
	<path class="st1" d="M12.9,118h-2.2v2.2h1.7v1.1h-1.7v2.3h2.2v1.1H9.5v-7.9h3.4V118z"/>
	<path class="st1" d="M16.3,120.8l1.5,4h-1.3l-1-2.8l0,0l-0.9,2.8h-1.2l1.5-4.1l-1.4-3.8h1.3l0.9,2.5l0,0l0.8-2.5h1.2L16.3,120.8z"
		/>
	<path class="st1" d="M19.7,124.8h-1.2v-7.9h1.2V124.8z"/>
	<path class="st1" d="M24.1,117.5c0.3,0.3,0.5,0.8,0.5,1.5v0.1c0,0.4-0.1,0.8-0.2,1.1c-0.1,0.3-0.4,0.4-0.7,0.6l0,0
		c0.4,0.1,0.6,0.3,0.8,0.6c0.2,0.3,0.3,0.7,0.3,1.2v0.3c0,0.6-0.2,1.1-0.5,1.5c-0.3,0.3-0.8,0.5-1.5,0.5H21V117h1.7
		C23.3,116.9,23.8,117.1,24.1,117.5z M22.2,118v2.2h0.4c0.3,0,0.5-0.1,0.6-0.2c0.1-0.2,0.2-0.4,0.2-0.7V119c0-0.3-0.1-0.6-0.2-0.7
		s-0.3-0.2-0.6-0.2h-0.4V118z M22.2,121.3v2.4h0.5c0.3,0,0.5-0.1,0.6-0.2c0.1-0.2,0.2-0.4,0.2-0.7v-0.4c0-0.4-0.1-0.6-0.2-0.8
		c-0.1-0.2-0.4-0.2-0.7-0.2h-0.4V121.3z"/>
	<path class="st1" d="M26.9,124.8h-1.2v-7.9h1.2V124.8z"/>
	<path class="st1" d="M29.4,123.7h2v1.1h-3.2v-7.9h1.2V123.7z"/>
	<path class="st1" d="M33.4,124.8h-1.2v-7.9h1.2V124.8z"/>
	<path class="st1" d="M37.8,117.5c0.3,0.3,0.5,0.8,0.5,1.5v3.9c0,0.6-0.2,1.1-0.5,1.5c-0.3,0.3-0.8,0.5-1.5,0.5h-1.7V117h1.7
		C37,116.9,37.5,117.1,37.8,117.5z M35.8,118v5.7h0.5c0.3,0,0.5-0.1,0.6-0.2c0.1-0.2,0.2-0.4,0.2-0.7v-3.7c0-0.3-0.1-0.6-0.2-0.7
		c-0.1-0.2-0.3-0.2-0.6-0.2h-0.5V118z"/>
	<path class="st1" d="M43.3,124.8h-1.2l-0.3-1.8h-1.3l-0.3,1.8H39l1.4-7.9h1.5L43.3,124.8z M41.1,118.6l-0.5,3.3h1L41.1,118.6
		L41.1,118.6z"/>
	<path class="st1" d="M47.3,117.5c0.3,0.3,0.5,0.8,0.5,1.5v3.9c0,0.6-0.2,1.1-0.5,1.5c-0.3,0.3-0.8,0.5-1.5,0.5h-1.7V117h1.7
		C46.5,116.9,47,117.1,47.3,117.5z M45.3,118v5.7h0.5c0.3,0,0.5-0.1,0.6-0.2c0.1-0.2,0.2-0.4,0.2-0.7v-3.7c0-0.3-0.1-0.6-0.2-0.7
		c-0.1-0.2-0.3-0.2-0.6-0.2h-0.5V118z"/>
	<path class="st1" d="M50.1,124.7l-0.6,1.4h-0.6l0.4-1.3h-0.4v-1.3h1.3v1.2C50.2,124.7,50.1,124.7,50.1,124.7z"/>
	<path class="st1" d="M56.9,118h-2.1v2.2h1.7v1.1h-1.7v3.5h-1.2v-7.9h3.3V118z"/>
	<path class="st1" d="M60.9,117.4c0.3,0.4,0.5,0.8,0.5,1.5v4.1c0,0.6-0.2,1.1-0.5,1.5s-0.8,0.5-1.4,0.5s-1.1-0.2-1.4-0.5
		c-0.3-0.4-0.5-0.8-0.5-1.5v-4.1c0-0.6,0.2-1.1,0.5-1.5s0.8-0.5,1.4-0.5S60.5,117,60.9,117.4z M58.9,118.2c-0.1,0.2-0.2,0.4-0.2,0.7
		v4.1c0,0.3,0.1,0.5,0.2,0.7c0.1,0.2,0.3,0.2,0.5,0.2s0.4-0.1,0.5-0.2s0.2-0.4,0.2-0.7v-4.1c0-0.3-0.1-0.5-0.2-0.7s-0.3-0.2-0.5-0.2
		C59.2,117.9,59,118,58.9,118.2z"/>
	<path class="st1" d="M65.2,124.8l-0.9-3.3h-0.6v3.3h-1.2v-7.9h1.8c0.6,0,1.1,0.2,1.5,0.5c0.3,0.3,0.5,0.8,0.5,1.5v0.6
		c0,0.8-0.3,1.4-0.8,1.7l1.1,3.6C66.6,124.8,65.2,124.8,65.2,124.8z M63.7,118v2.3h0.5c0.3,0,0.5-0.1,0.6-0.2
		c0.1-0.2,0.2-0.4,0.2-0.7V119c0-0.3-0.1-0.6-0.2-0.7c-0.1-0.2-0.3-0.2-0.6-0.2h-0.5C63.7,118.1,63.7,118,63.7,118z"/>
	<path class="st1" d="M70.5,118.1h-1.3v6.8H68v-6.8h-1.3V117h3.7v1.1H70.5z"/>
	<path class="st1" d="M74.7,124.8h-1.2l-0.3-1.8h-1.3l-0.3,1.8h-1.2l1.4-7.9h1.5L74.7,124.8z M72.5,118.6l-0.5,3.3h1L72.5,118.6
		L72.5,118.6z"/>
	<path class="st1" d="M76.7,123.7h2v1.1h-3.2v-7.9h1.2V123.7z"/>
	<path class="st1" d="M82.9,118h-2.2v2.2h1.7v1.1h-1.7v2.3h2.2v1.1h-3.4v-7.9h3.4V118z"/>
	<path class="st1" d="M87,117.9l-2.2,5.8H87v1.1h-3.5v-1l2.2-5.8h-2.1v-1.1H87V117.9z"/>
	<path class="st1" d="M91.7,124.8h-1.2l-0.3-1.8h-1.3l-0.3,1.8h-1.2l1.4-7.9h1.5L91.7,124.8z M89.5,118.6l-0.5,3.3h1L89.5,118.6
		L89.5,118.6z"/>
	<path class="st1" d="M96.4,121.3v3.6h-1.2v-3.6l-1.7-4.3h1.3l1,2.8l0,0l1-2.8H98L96.4,121.3z"/>
	<path class="st1" d="M103.8,118h-2.2v2.2h1.7v1.1h-1.7v2.3h2.2v1.1h-3.4v-7.9h3.4V118z"/>
	<path class="st1" d="M107.3,124.8h-1.5l-1.3-7.9h1.2l0.9,6l0,0l0.9-6h1.2L107.3,124.8z"/>
	<path class="st1" d="M112.7,117.4c0.3,0.4,0.5,0.8,0.5,1.5v4.1c0,0.6-0.2,1.1-0.5,1.5s-0.8,0.5-1.4,0.5s-1.1-0.2-1.4-0.5
		c-0.3-0.4-0.5-0.8-0.5-1.5v-4.1c0-0.6,0.2-1.1,0.5-1.5s0.8-0.5,1.4-0.5S112.3,117,112.7,117.4z M110.7,118.2
		c-0.1,0.2-0.2,0.4-0.2,0.7v4.1c0,0.3,0.1,0.5,0.2,0.7s0.3,0.2,0.5,0.2s0.4-0.1,0.5-0.2s0.2-0.4,0.2-0.7v-4.1c0-0.3-0.1-0.5-0.2-0.7
		s-0.3-0.2-0.5-0.2C111,117.9,110.8,118,110.7,118.2z"/>
	<path class="st1" d="M115.5,123.7h2v1.1h-3.2v-7.9h1.2V123.7z"/>
	<path class="st1" d="M121.9,123.1c0,0.6-0.2,1.1-0.5,1.4s-0.8,0.5-1.4,0.5s-1-0.2-1.3-0.5s-0.5-0.8-0.5-1.4V117h1.2v6.1
		c0,0.5,0.2,0.8,0.7,0.8s0.7-0.3,0.7-0.8V117h1.2L121.9,123.1L121.9,123.1z"/>
	<path class="st1" d="M126.2,117.3c0.3,0.3,0.5,0.8,0.5,1.4v0.7l-1.2,0.1v-0.6c0-0.6-0.2-0.9-0.7-0.9c-0.2,0-0.4,0.1-0.5,0.2
		s-0.2,0.3-0.2,0.6v4.3c0,0.3,0.1,0.5,0.2,0.6s0.3,0.2,0.5,0.2c0.5,0,0.7-0.3,0.7-0.9v-0.9l1.2,0.1v0.9c0,0.6-0.2,1.1-0.5,1.4
		s-0.8,0.5-1.4,0.5s-1-0.2-1.4-0.5c-0.3-0.3-0.5-0.8-0.5-1.4v-4.3c0-0.6,0.2-1.1,0.5-1.4s0.8-0.5,1.4-0.5
		C125.4,116.8,125.9,117,126.2,117.3z"/>
	<path class="st1" d="M128.9,124.8h-1.2v-7.9h1.2V124.8z"/>
	<path class="st1" d="M133.4,117.4c0.3,0.4,0.5,0.8,0.5,1.5v4.1c0,0.6-0.2,1.1-0.5,1.5s-0.8,0.5-1.4,0.5s-1.1-0.2-1.4-0.5
		c-0.3-0.4-0.5-0.8-0.5-1.5v-4.1c0-0.6,0.2-1.1,0.5-1.5s0.8-0.5,1.4-0.5S133.1,117,133.4,117.4z M131.5,118.2
		c-0.1,0.2-0.2,0.4-0.2,0.7v4.1c0,0.3,0.1,0.5,0.2,0.7c0.1,0.2,0.3,0.2,0.5,0.2s0.4-0.1,0.5-0.2s0.2-0.4,0.2-0.7v-4.1
		c0-0.3-0.1-0.5-0.2-0.7s-0.3-0.2-0.5-0.2C131.8,117.9,131.6,118,131.5,118.2z M132.3,116.5h-0.9l0.7-1.2h1.2L132.3,116.5z"/>
	<path class="st1" d="M139,124.8h-1.2l-1.6-5.2l0,0v5.2h-1.1v-7.9h1.3l1.4,4.7l0,0v-4.7h1.1v7.9H139z"/>
</g>
<g>
	<path class="st2" d="M56.2,90.9"/>
	<g>
		
			<linearGradient id="SVGID_1_" gradientUnits="userSpaceOnUse" x1="27.6" y1="144.8" x2="109.6" y2="144.8" gradientTransform="matrix(1 0 0 -1 0 200)">
			<stop  offset="0" style="stop-color:#009A47"/>
			<stop  offset="0.2235" style="stop-color:#019745"/>
			<stop  offset="0.5" style="stop-color:#039142"/>
			<stop  offset="1" style="stop-color:#088038"/>
		</linearGradient>
		
			<linearGradient id="SVGID_2_" gradientUnits="userSpaceOnUse" x1="26.1" y1="144.8" x2="111.1" y2="144.8" gradientTransform="matrix(1 0 0 -1 0 200)">
			<stop  offset="0" style="stop-color:#92C02E"/>
			<stop  offset="0.2772" style="stop-color:#86B356"/>
			<stop  offset="0.5576" style="stop-color:#40C679"/>
			<stop  offset="0.7161" style="stop-color:#3EC477"/>
			<stop  offset="1" style="stop-color:#088038"/>
		</linearGradient>
		<path class="st3" d="M109.6,55.1c0,5.1-1.1,10.3-3.2,15.1s-5.2,9-9,12.5s-8.3,6.4-13.1,8.3S74.2,93.9,69,94
			c-10.4,0.1-21-3.7-28.8-10.8c-3.9-3.5-7.1-7.9-9.3-12.7s-3.3-10.1-3.3-15.3s1.2-10.6,3.3-15.3s5.4-9.2,9.3-12.7
			C48,20.1,58.6,16.3,69,16.4c5.2,0.1,10.4,1.1,15.3,3c4.9,2,9.3,4.8,13,8.3s6.9,7.8,9,12.5C108.5,44.8,109.6,50,109.6,55.1z
			 M109.6,55.1c0-5.1-1.2-10.3-3.3-15c-2.2-4.7-5.3-8.9-9.1-12.4C89.5,20.8,79.2,17,69,17.2c-5.1,0.1-10.2,1.1-14.9,3
			c-4.8,1.9-9.1,4.7-12.8,8.1s-6.8,7.6-8.8,12.2c-2.1,4.6-3.1,9.6-3.1,14.6s1,10.1,3.1,14.7s5.1,8.8,8.8,12.2
			c3.7,3.4,8.1,6.2,12.8,8.1c4.8,1.9,9.8,2.9,14.9,3c10.3,0.1,20.5-3.6,28.2-10.5c3.8-3.5,6.9-7.7,9.1-12.4
			C108.4,65.4,109.6,60.3,109.6,55.1z"/>
	</g>
	<path class="st4" d="M60.4,94.2c-1.1-11.8-2.3-21.4-3.3-28.3c-0.9-6.1-1.9-12.1-3.1-19.7c-0.5-2.8-0.9-5.7-1.4-8.5
		c-0.2-1.1-1.9-6.8-1-7.6c0.1-0.1,0.3-0.2,0.5-0.2c2.5-0.5,5.3-0.8,7.8-0.2c2,0.5,1.8,1.5,2.1,3.5c0.7,4.7,1.4,9.5,2.2,14.2
		c2.5,16.5,3.1,20.2,3.9,26.1c0.7,5.1,1.5,12.4,2.3,21.5"/>
	<path class="st5" d="M58.2,73.9C58.7,74,59.3,74,60,74c1.1,0,2-0.2,2.6-0.4"/>
	<path class="st6" d="M54.8,51.3c1.2,0.1,2.8,0.1,4.8-0.3c1.9-0.4,3.4-1,4.4-1.5"/>
	<path class="st7" d="M60.6,73.9l1.3-0.1c-2.5-12.3-3.9-18.4-4.2-18.4c-0.3,0.1,0.5,6.3,2.4,18.5C60.3,73.9,60.5,73.9,60.6,73.9z"/>
	<path class="st7" d="M57.1,51.1c0.1,0,0.1,0,0.2,0h0.5c0.3-0.1,0.6-0.1,0.8-0.2c-2.8-11.9-4.4-17.7-4.7-17.6s0.7,6.1,3,17.8
		C56.9,51,57,51,57.1,51.1z"/>
	<path class="st7" d="M63.6,52.6c-0.8,0.3-1.9,0.6-3.3,0.7c-1,0.1-1.5-0.1-1.5,0c-0.1,0.2,1.7,1.3,3.7,1.1c0.4-0.1,0.8-0.2,1-0.3"/>
	<path class="st7" d="M62.5,94.6c0.3,0,0.5,0,0.8,0c0.2,0,0.4-0.1,0.6-0.2c0.1,0,0.1,0,0.2,0c-2-11.9-3.2-17.8-3.5-17.8
		s0.2,6,1.5,17.9C62.2,94.5,62.3,94.6,62.5,94.6z"/>
	<g>
		<path class="st8" d="M60.4,94c0.9-7.9,1.6-15.7,2.2-23.6c0.6-8,1.1-16,1.4-24c0.3-7.2,0.4-14.4,0.5-21.6c3.9,0,7.8,0.9,11.4,2.5
			c0.3,0.1,0.6,0.3,0.8,0.6c0.2,0.4,0.2,0.8,0.2,1.2c-0.8,21.9-2,43.7-3.6,65.6c0,0.3-5.9,0.2-6.5,0.2c-2.2-0.1-4.6-0.3-6.8-0.6"/>
		<path class="st8" d="M62.5,71.6c1.8,0.2,3.2,0.2,4.4,0.2c1.8,0,3.8-0.1,6.4-0.8c0.6-0.2,1.1-0.3,1.4-0.5"/>
		<path class="st8" d="M63.9,47c1.1,0.2,2.4,0.3,3.7,0.4c3.1,0.2,5.9,0.1,8.2-0.1"/>
		<path class="st7" d="M62.7,94.6l3.1,0.2c0-13.6-0.3-19.5-0.8-19.5C64.6,75.3,63.8,81.1,62.7,94.6C62.5,94.6,62.5,94.6,62.7,94.6z"
			/>
		<path class="st7" d="M66.6,47.3c0.1,0,0.2,0,0.3,0c0.4,0,0.7,0,1.1,0c0.2,0,0.5-0.1,0.7-0.2c-0.3-11.7-0.7-17.6-1.2-17.6
			c-0.4,0-0.9,5.9-1.4,17.7C66.3,47.2,66.4,47.2,66.6,47.3z"/>
		<path class="st7" d="M64.8,71.7c0.7,0,1.4,0,2.2,0c0.2,0,0.4-0.1,0.6-0.2c-0.2-13.3-0.6-19.9-1.1-19.9S65.5,58.3,64.8,71.7
			L64.8,71.7z"/>
		<path class="st7" d="M76,50.3c0-0.2,0-0.4,0-0.7l0,0c-1,0.1-2.4,0.3-4,0.1c-1.5-0.1-2.5-0.4-2.5-0.2c-0.1,0.2,1.5,1.1,3.3,1.4
			c1.3,0.2,2.4,0.2,3.1,0L76,50.3C76,50.4,76,50.3,76,50.3z"/>
		<path class="st7" d="M74.5,73.1c-0.3,0.1-2.6,0.5-4.2,0.7c-0.5,0.1-0.8,0.1-1.3,0.2c-1,0.1-1.3,0-1.4,0.1c0,0.2,2.3,0.8,4.9,0.9
			c0.8,0,1.5,0,1.9,0"/>
	</g>
	<g>
		<path class="st9" d="M76.8,69.9c-0.3-0.4,2.3-2.9,3.2-3.7c1.5-1.4,2.9-2.4,3.9-3s1.7-1,2.6-1.5c1.4-0.7,2.1-1.1,2.2-1
			c0.3,0.3-2,3.1-4.8,5.3C80.8,68.5,77.1,70.3,76.8,69.9z"/>
		<path class="st10" d="M77.4,71.3c0.3-0.4,2.8,0.9,4,1.5c1.7,0.9,3.8,2.1,5.9,4.1c0.8,0.7,1.6,1.4,2.3,2.3c0,0.1,0.1,0.1,0.1,0.2
			c0,0.2-0.3,0.2-0.5,0.1c-3.1-1.3-6.4-2.8-9-5C78.9,73.5,77.1,71.7,77.4,71.3z"/>
	</g>
	<g>
		<path class="st8" d="M49,34.8c0,0-3.8,3.3-6.2,1.5C42.8,36.3,45.6,32.8,49,34.8z"/>
		<path class="st11" d="M50.1,44.7c0,0-1.9-3.6,0.1-6.8C50.2,37.8,52.6,40.2,50.1,44.7z"/>
		<path class="st12" d="M42.4,46.5c-0.2-1.8,1.4-4.4,2.4-5.8c1.2-1.8,2.8-3.5,4.7-4.6c-0.6,0.4-0.7,1.9-0.9,2.6
			c-0.3,1.1-0.8,2.1-1.4,3C46.1,43.4,44.3,45.9,42.4,46.5z"/>
	</g>
	<g>
		<path class="st13" d="M55.3,75.6c1.7,3.2-1.4,7.4-1.4,7.4C52.1,78.7,55.3,75.6,55.3,75.6z"/>
		<path class="st12" d="M54.4,73.5c-1.6,4.9-8.9,7.9-8.9,7.9C48.1,74.9,54.4,73.5,54.4,73.5z"/>
	</g>
	<g>
		<g>
			<path class="st14" d="M93.2,53.5c0,0-9.2-0.3-13.3-4.3C79.9,49,87.3,48.3,93.2,53.5z"/>
			<path class="st15" d="M82.1,38c0,0,0.2,6.3-3.3,7.6C78.8,45.5,77.6,40,82.1,38z"/>
		</g>
		<path class="st16" d="M91.7,45.5c0,0-6.7,4.2-12.2,1.6C79.5,47.1,84.1,42.6,91.7,45.5z"/>
	</g>
</g>
</svg>
