<?xml version="1.0" encoding="utf-8"?>
<!-- Generator: Adobe Illustrator 25.2.1, SVG Export Plug-In . SVG Version: 6.00 Build 0)  -->
<svg version="1.1" id="Capa_1" xmlns="http://www.w3.org/2000/svg" xmlns:xlink="http://www.w3.org/1999/xlink" x="0px" y="0px"
	 viewBox="0 0 270 80" style="enable-background:new 0 0 270 80;" xml:space="preserve">
<style type="text/css">
	.st0{fill:#020303;}
	.st1{fill:#009B48;stroke:#FFFFFF;stroke-width:0.25;stroke-miterlimit:10;}
	.st2{fill:url(#SVGID_1_);stroke:url(#SVGID_2_);stroke-width:3;stroke-miterlimit:10;}
	.st3{fill:#92C02E;stroke:#000000;stroke-width:0.75;stroke-miterlimit:10;}
	.st4{fill:#54B57B;stroke:#000000;stroke-miterlimit:10;}
	.st5{fill:none;stroke:#000000;stroke-miterlimit:10;}
	.st6{fill:#FFFFFF;stroke:#000000;stroke-width:0.75;stroke-miterlimit:10;}
	.st7{fill:#40C679;stroke:#000000;stroke-width:0.75;stroke-miterlimit:10;}
	.st8{fill:#88B153;stroke:#000000;stroke-miterlimit:10;}
	.st9{fill:#40C679;stroke:#000000;stroke-miterlimit:10;}
	.st10{fill:#009946;stroke:#000000;stroke-width:0.75;stroke-miterlimit:10;}
	.st11{fill:#88B153;stroke:#000000;stroke-width:0.75;stroke-miterlimit:10;}
	.st12{fill:#4A8537;stroke:#000000;stroke-width:0.75;stroke-miterlimit:10;}
	.st13{fill:#088038;stroke:#000000;stroke-width:0.75;stroke-miterlimit:10;}
	.st14{fill:#009A47;stroke:#000000;stroke-width:0.75;stroke-miterlimit:10;}
	.st15{fill:#89B254;stroke:#000000;stroke-width:0.75;stroke-miterlimit:10;}
</style>
<g>
	<g>
		<g>
			<path class="st0" d="M106.4,49.4c-1.6,1.4-4,2.2-7.1,2.2c-3.5,0-6-0.8-7.5-2.5c-1.6-1.7-2.2-4-2.2-7v-11h1.8v11
				c0,2.7,0.6,4.7,1.9,6c1.3,1.2,3.2,1.8,5.8,1.8c2.9,0,4.9-0.6,6.1-1.9c1.2-1.3,1.7-3.2,1.7-5.9v-11h1.8v11
				C108.7,45.5,108,48,106.4,49.4z"/>
			<path class="st0" d="M134.9,31.1v20h-2.2l-14.9-17.7v17.7H116v-20h2.2L133,48.8V31.1H134.9z"/>
			<path class="st0" d="M159.6,42.5c0.8,0.9,1.2,2,1.2,3.2c0,1.6-0.6,3-1.8,3.9c-1.2,1-2.9,1.4-4.9,1.4h-11.4V31h10.8
				c1.9,0,3.5,0.5,4.7,1.4s1.7,2.2,1.7,3.6c0,1-0.3,2-0.9,2.7c-0.5,0.8-1.4,1.3-2.5,1.7C157.7,41,158.8,41.6,159.6,42.5z
				 M156.7,33.6c-0.8-0.7-1.9-1-3.5-1h-8.8v7.5h9.2c1.4,0,2.5-0.4,3.2-1s1.2-1.6,1.2-2.7C157.9,35.3,157.5,34.2,156.7,33.6z
				 M157.5,48.6c0.9-0.8,1.3-1.7,1.3-3s-0.4-2.2-1.3-3c-0.9-0.8-2.1-1-3.8-1h-9.4v8.1h9.4C155.3,49.7,156.6,49.3,157.5,48.6z"/>
			<path class="st0" d="M181.4,45.7h-12.7l-2.7,5.5h-2l10.1-20h1.9l10.1,20h-1.9L181.4,45.7z M180.6,44.2L175,32.9l-5.7,11.3H180.6z
				"/>
			<path class="st0" d="M215.3,31.1v20h-1.8V34l-9.2,17.2h-1.7l-9.4-17.3v17.3h-1.8v-20h2.2l9.8,18.2l9.8-18.2h2.1L215.3,31.1
				L215.3,31.1z"/>
			<path class="st0" d="M240,42.5c0.8,0.9,1.2,2,1.2,3.2c0,1.6-0.6,3-1.8,3.9c-1.2,1-2.9,1.4-4.9,1.4H223V31h10.8
				c1.9,0,3.5,0.5,4.7,1.4s1.7,2.2,1.7,3.6c0,1-0.3,2-0.9,2.7c-0.5,0.8-1.4,1.3-2.5,1.7C238.2,41,239.3,41.6,240,42.5z M237.2,33.6
				c-0.8-0.7-1.9-1-3.5-1h-8.8v7.5h9.2c1.4,0,2.5-0.4,3.2-1s1.2-1.6,1.2-2.7C238.5,35.3,238,34.2,237.2,33.6z M238,48.6
				c0.9-0.8,1.3-1.7,1.3-3s-0.4-2.2-1.3-3c-0.9-0.8-2.1-1-3.8-1h-9.4v8.1h9.4C235.9,49.7,237,49.3,238,48.6z"/>
			<path class="st0" d="M264,49.4c-1.6,1.4-4,2.2-7.2,2.2c-3.5,0-6-0.8-7.5-2.5c-1.4-1.7-2.2-4-2.2-7v-11h1.8v11
				c0,2.7,0.6,4.7,1.9,6c1.3,1.2,3.2,1.8,5.8,1.8c2.9,0,4.9-0.6,6.1-1.9c1.2-1.3,1.7-3.2,1.7-5.9v-11h1.8v11
				C266.3,45.5,265.5,48,264,49.4z M260.1,24.3l1.2,0.9l-4.6,4.6l-1-0.9L260.1,24.3z"/>
		</g>
	</g>
</g>
<g>
	<g>
		<path class="st1" d="M30.9,72.4"/>
		<g>
			
				<linearGradient id="SVGID_1_" gradientUnits="userSpaceOnUse" x1="5.1226" y1="-59.6959" x2="78.9226" y2="-59.6959" gradientTransform="matrix(1 0 0 1 0 100)">
				<stop  offset="0" style="stop-color:#009A47"/>
				<stop  offset="0.2235" style="stop-color:#019745"/>
				<stop  offset="0.5" style="stop-color:#039142"/>
				<stop  offset="1" style="stop-color:#088038"/>
			</linearGradient>
			
				<linearGradient id="SVGID_2_" gradientUnits="userSpaceOnUse" x1="3.6226" y1="-59.6959" x2="80.4226" y2="-59.6959" gradientTransform="matrix(1 0 0 1 0 100)">
				<stop  offset="0" style="stop-color:#92C02E"/>
				<stop  offset="0.2772" style="stop-color:#86B356"/>
				<stop  offset="0.5576" style="stop-color:#40C679"/>
				<stop  offset="0.819" style="stop-color:#3EC477"/>
				<stop  offset="1" style="stop-color:#088038"/>
			</linearGradient>
			<path class="st2" d="M78.9,40.2c0,4.6-1,9.3-2.9,13.6s-4.7,8.1-8.1,11.2c-3.4,3.2-7.5,5.8-11.8,7.5c-4.3,1.7-9.1,2.6-13.8,2.7
				c-9.4,0.1-18.9-3.3-25.9-9.7c-3.5-3.2-6.4-7.1-8.4-11.4s-3-9.1-3-13.8s1.1-9.5,3-13.8s4.9-8.3,8.4-11.4c7-6.4,16.6-9.8,25.9-9.7
				c4.7,0.1,9.4,1,13.8,2.7c4.4,1.8,8.4,4.3,11.7,7.5c3.3,3.1,6.2,7,8.1,11.2C77.9,30.9,78.9,35.6,78.9,40.2z M78.9,40.2
				c0-4.6-1.1-9.3-3-13.5c-2-4.2-4.8-8-8.2-11.2c-6.9-6.2-16.2-9.6-25.4-9.4c-4.6,0.1-9.2,1-13.4,2.7c-4.3,1.7-8.2,4.2-11.5,7.3
				s-6.1,6.8-7.9,11c-1.9,4.1-2.8,8.6-2.8,13.1s0.9,9.1,2.8,13.2s4.6,7.9,7.9,11c3.3,3.1,7.3,5.6,11.5,7.3c4.3,1.7,8.8,2.6,13.4,2.7
				c9.3,0.1,18.5-3.2,25.4-9.4C71.2,61.8,74,58,76,53.8C77.8,49.5,78.9,44.9,78.9,40.2z"/>
		</g>
		<path class="st3" d="M34.6,75.4c-1-10.6-2.1-19.3-3-25.5C30.9,44.4,30,39,28.9,32.2c-0.5-2.5-0.8-5.1-1.3-7.6
			c-0.2-1-1.7-6.1-0.9-6.8c0.1-0.1,0.3-0.2,0.5-0.2c2.2-0.5,4.8-0.7,7-0.2c1.8,0.4,1.6,1.4,1.9,3.1c0.6,4.2,1.3,8.5,2,12.8
			c2.2,14.9,2.8,18.2,3.5,23.5c0.6,4.6,1.4,11.2,2.1,19.4"/>
		<path class="st4" d="M32.7,57.1c0.5,0.1,1,0.1,1.6,0.1c1,0,1.8-0.2,2.3-0.4"/>
		<path class="st5" d="M29.6,36.8c1.1,0.1,2.5,0.1,4.3-0.3c1.7-0.4,3.1-0.9,4-1.3"/>
		<path class="st6" d="M34.8,57.1L36,57c-2.2-11.1-3.5-16.6-3.8-16.6c-0.3,0.1,0.5,5.7,2.2,16.6C34.6,57.1,34.7,57.1,34.8,57.1z"/>
		<path class="st6" d="M31.7,36.6c0.1,0,0.1,0,0.2,0h0.5c0.3-0.1,0.5-0.1,0.7-0.2c-2.5-10.7-4-15.9-4.2-15.8s0.6,5.5,2.7,16
			C31.5,36.5,31.6,36.5,31.7,36.6z"/>
		<path class="st6" d="M37.5,38c-0.7,0.3-1.7,0.5-3,0.6c-0.9,0.1-1.4-0.1-1.4,0c-0.1,0.2,1.5,1.2,3.3,1c0.4-0.1,0.7-0.2,0.9-0.3"/>
		<path class="st6" d="M36.5,75.8c0.3,0,0.5,0,0.7,0c0.2,0,0.4-0.1,0.5-0.2c0.1,0,0.1,0,0.2,0c-1.8-10.7-2.9-16-3.1-16
			c-0.3,0,0.2,5.4,1.3,16.1C36.3,75.7,36.4,75.8,36.5,75.8z"/>
		<g>
			<path class="st7" d="M34.6,75.2c0.8-7.1,1.4-14.1,2-21.2c0.5-7.2,1-14.4,1.3-21.6c0.3-6.5,0.4-13,0.5-19.4c3.5,0,7,0.8,10.3,2.2
				c0.3,0.1,0.5,0.3,0.7,0.5c0.2,0.4,0.2,0.7,0.2,1.1c-0.7,19.7-1.8,39.3-3.2,59c0,0.3-5.3,0.2-5.8,0.2c-2-0.1-4.1-0.3-6.1-0.5"/>
			<path class="st7" d="M36.5,55.1c1.6,0.2,2.9,0.2,4,0.2c1.6,0,3.4-0.1,5.8-0.7c0.5-0.2,1-0.3,1.3-0.4"/>
			<path class="st7" d="M37.8,32.9c1,0.2,2.2,0.3,3.3,0.4c2.8,0.2,5.3,0.1,7.4-0.1"/>
			<path class="st6" d="M36.7,75.8l2.8,0.2c0-12.2-0.3-17.5-0.7-17.5C38.4,58.4,37.7,63.6,36.7,75.8C36.5,75.8,36.5,75.8,36.7,75.8z
				"/>
			<path class="st6" d="M40.2,33.2c0.1,0,0.2,0,0.3,0c0.4,0,0.6,0,1,0c0.2,0,0.5-0.1,0.6-0.2c-0.3-10.5-0.6-15.8-1.1-15.8
				c-0.4,0-0.8,5.3-1.3,15.9C40,33.1,40,33.1,40.2,33.2z"/>
			<path class="st6" d="M38.6,55.2c0.6,0,1.3,0,2,0c0.2,0,0.4-0.1,0.5-0.2c-0.2-12-0.5-17.9-1-17.9C39.7,37.1,39.2,43.1,38.6,55.2
				L38.6,55.2z"/>
			<path class="st6" d="M48.7,35.9c0-0.2,0-0.4,0-0.6l0,0c-0.9,0.1-2.2,0.3-3.6,0.1c-1.3-0.1-2.2-0.4-2.2-0.2c-0.1,0.2,1.4,1,3,1.3
				c1.2,0.2,2.2,0.2,2.8,0L48.7,35.9C48.7,36,48.7,35.9,48.7,35.9z"/>
			<path class="st6" d="M47.3,56.4c-0.3,0.1-2.3,0.5-3.8,0.6c-0.5,0.1-0.7,0.1-1.2,0.2c-0.9,0.1-1.2,0-1.3,0.1
				c0,0.2,2.1,0.7,4.4,0.8c0.7,0,1.3,0,1.7,0"/>
		</g>
		<g>
			<path class="st8" d="M49.4,53.5c-0.3-0.4,2.1-2.6,2.9-3.3c1.4-1.3,2.6-2.2,3.5-2.7c0.9-0.5,1.5-0.9,2.3-1.3c1.3-0.6,1.9-1,2-0.9
				c0.3,0.3-1.8,2.8-4.3,4.8C53,52.3,49.7,53.9,49.4,53.5z"/>
			<path class="st9" d="M49.9,54.8c0.3-0.4,2.5,0.8,3.6,1.3c1.5,0.8,3.4,1.9,5.3,3.7c0.7,0.6,1.4,1.3,2.1,2.1c0,0.1,0.1,0.1,0.1,0.2
				c0,0.2-0.3,0.2-0.4,0.1c-2.8-1.2-5.8-2.5-8.1-4.5C51.3,56.8,49.7,55.2,49.9,54.8z"/>
		</g>
		<g>
			<path class="st7" d="M24.4,21.9c0,0-3.4,3-5.6,1.3C18.8,23.3,21.3,20.1,24.4,21.9z"/>
			<path class="st10" d="M25.4,30.9c0,0-1.7-3.2,0.1-6.1C25.5,24.6,27.6,26.8,25.4,30.9z"/>
			<path class="st11" d="M18.4,32.5c-0.2-1.6,1.3-4,2.2-5.2c1.1-1.6,2.5-3.1,4.2-4.1c-0.5,0.4-0.6,1.7-0.8,2.3
				c-0.3,1-0.7,1.9-1.3,2.7C21.8,29.7,20.2,31.9,18.4,32.5z"/>
		</g>
		<g>
			<path class="st12" d="M30.1,58.7c1.5,2.9-1.3,6.7-1.3,6.7C27.2,61.5,30.1,58.7,30.1,58.7z"/>
			<path class="st11" d="M29.2,56.8c-1.4,4.4-8,7.1-8,7.1C23.6,58,29.2,56.8,29.2,56.8z"/>
		</g>
		<g>
			<g>
				<path class="st13" d="M64.2,38.8c0,0-8.3-0.3-12-3.9C52.2,34.7,58.9,34.1,64.2,38.8z"/>
				<path class="st14" d="M54.2,24.8c0,0,0.2,5.7-3,6.8C51.2,31.6,50.1,26.6,54.2,24.8z"/>
			</g>
			<path class="st15" d="M62.8,31.6c0,0-6,3.8-11,1.4C51.8,33,56,29,62.8,31.6z"/>
		</g>
	</g>
</g>
</svg>
