<?xml version="1.0" encoding="utf-8"?>
<!-- Generator: Adobe Illustrator 25.2.1, SVG Export Plug-In . SVG Version: 6.00 Build 0)  -->
<svg version="1.1" id="Capa_1" xmlns="http://www.w3.org/2000/svg" xmlns:xlink="http://www.w3.org/1999/xlink" x="0px" y="0px"
	 viewBox="0 0 300 80" style="enable-background:new 0 0 300 80;" xml:space="preserve">
<style type="text/css">
	.st0{fill:#009C48;stroke:#FFFFFF;stroke-width:0.25;stroke-miterlimit:10;}
	.st1{fill:#FFFFFF;stroke:url(#SVGID_1_);stroke-width:3;stroke-miterlimit:10;}
	.st2{fill:#93C12F;stroke:#FFFFFF;stroke-miterlimit:10;}
	.st3{fill:#FFFFFF;stroke:#FFFFFF;stroke-width:0.75;stroke-miterlimit:10;}
	.st4{fill:#57B577;stroke:#FFFFFF;stroke-miterlimit:10;}
	.st5{fill:#FFFFFF;stroke:#FFFFFF;stroke-miterlimit:10;}
	.st6{fill:#88B153;stroke:#FFFFFF;stroke-miterlimit:10;}
	.st7{fill:#009946;stroke:#FFFFFF;stroke-miterlimit:10;}
	.st8{fill:#4B8638;stroke:#FFFFFF;stroke-miterlimit:10;}
	.st9{fill:#0C8139;stroke:#FFFFFF;stroke-miterlimit:10;}
	.st10{fill:#009A46;stroke:#FFFFFF;stroke-miterlimit:10;}
	.st11{fill:#89B254;stroke:#FFFFFF;stroke-miterlimit:10;}
	.st12{fill:none;stroke:#FFFFFF;stroke-miterlimit:10;}
	.st13{fill:#56B57B;stroke:#FFFFFF;stroke-miterlimit:10;}
	.st14{fill:#FFFFFF;}
</style>
<g>
	<path class="st0" d="M29.4,72.7"/>
	<g>
		
			<linearGradient id="SVGID_1_" gradientUnits="userSpaceOnUse" x1="2.1372" y1="-59.4767" x2="78.9372" y2="-59.4767" gradientTransform="matrix(1 0 0 1 0 100)">
			<stop  offset="0" style="stop-color:#93C12F"/>
			<stop  offset="0.2772" style="stop-color:#86B356"/>
			<stop  offset="0.5576" style="stop-color:#57B577"/>
			<stop  offset="0.819" style="stop-color:#55B476"/>
			<stop  offset="1" style="stop-color:#0C8139"/>
		</linearGradient>
		<path class="st1" d="M77.4,40.4c0,4.6-1,9.3-2.9,13.6s-4.7,8.1-8.1,11.3C63,68.4,59,71,54.7,72.7c-4.3,1.7-9.1,2.6-13.8,2.7
			C31.5,75.5,22,72.1,15,65.7c-3.5-3.2-6.4-7.1-8.4-11.4s-3-9.1-3-13.8s1.1-9.5,3-13.8s4.9-8.3,8.4-11.4c7-6.4,16.6-9.8,25.9-9.7
			c4.7,0.1,9.4,1,13.8,2.7c4.4,1.8,8.4,4.3,11.7,7.5c3.3,3.1,6.2,7,8.1,11.2C76.4,31.2,77.4,35.8,77.4,40.4z M77.4,40.4
			c0-4.6-1.1-9.3-3-13.5c-2-4.2-4.8-8-8.2-11.2c-6.9-6.2-16.2-9.6-25.4-9.5c-4.6,0.1-9.2,1-13.4,2.7c-4.3,1.7-8.2,4.2-11.5,7.3
			s-6.1,6.8-7.9,11c-1.9,4.1-2.8,8.6-2.8,13.1S6.2,49.5,8,53.7c1.9,4.1,4.6,7.9,7.9,11s7.3,5.6,11.5,7.3c4.3,1.7,8.8,2.6,13.4,2.7
			c9.3,0.1,18.5-3.2,25.4-9.5c3.4-3.1,6.2-6.9,8.2-11.2C76.4,49.7,77.4,45.1,77.4,40.4z"/>
	</g>
	<path class="st2" d="M33.2,76c-1-10.7-2.1-19.4-3-25.6c-0.8-5.5-1.7-11-2.8-17.8c-0.5-2.5-0.8-5.2-1.3-7.7c-0.2-1-1.7-6.2-0.9-6.9
		c0.1-0.1,0.3-0.2,0.5-0.2c2.3-0.5,4.8-0.7,7-0.2c1.8,0.5,1.6,1.4,1.9,3.2c0.6,4.3,1.3,8.6,2,12.9c2.3,15,2.8,18.3,3.5,23.6
		c0.6,4.6,1.4,11.2,2.1,19.5"/>
	<path class="st3" d="M33.3,57.4l1.2-0.1c-2.2-11.1-3.5-16.6-3.8-16.6c-0.3,0.1,0.5,5.7,2.2,16.7C33.1,57.4,33.2,57.4,33.3,57.4z"/>
	<path class="st3" d="M30.2,36.9c0.1,0,0.1,0,0.2,0h0.4c0.3-0.1,0.5-0.1,0.7-0.2c-2.5-10.7-4-15.9-4.2-15.8c-0.3,0.1,0.6,5.5,2.7,16
		C30,36.8,30.1,36.8,30.2,36.9z"/>
	<path class="st3" d="M36,38.2c-0.7,0.3-1.7,0.5-3,0.6c-0.9,0.1-1.4-0.1-1.4,0c-0.1,0.2,1.5,1.2,3.3,1c0.4-0.1,0.7-0.2,0.9-0.3"/>
	<path class="st3" d="M35,76c0.3,0,0.5,0,0.7,0c0.2,0,0.4-0.1,0.5-0.2c0.1,0,0.1,0,0.2,0c-1.8-10.7-2.9-16-3.1-16
		c-0.3,0,0.2,5.4,1.3,16.1C34.8,75.9,34.9,76,35,76z"/>
	<g>
		<path class="st4" d="M33.2,75.4c0.8-7.1,1.4-14.1,2-21.2c0.5-7.2,1-14.4,1.3-21.6c0.3-6.5,0.4-13,0.5-19.4c3.5,0,7,0.8,10.3,2.2
			c0.3,0.1,0.5,0.3,0.7,0.5C48,16.3,48,16.7,48,17c-0.7,19.7-1.8,39.3-3.2,59c0,0.3-5.3,0.2-5.8,0.2c-2-0.1-4.1-0.3-6.1-0.5"/>
		<path class="st5" d="M35.2,76l2.8,0.2c0-12.2-0.3-17.6-0.7-17.6C36.9,58.6,36.2,63.8,35.2,76C35,76,35,76,35.2,76z"/>
		<path class="st5" d="M38.7,33.4c0.1,0,0.2,0,0.3,0c0.4,0,0.6,0,1,0c0.2,0,0.5-0.1,0.6-0.2c-0.3-10.5-0.6-15.8-1.1-15.8
			c-0.4,0-0.8,5.3-1.3,15.9C38.5,33.3,38.6,33.3,38.7,33.4z"/>
		<path class="st5" d="M36.9,55.2c0.6,0,1.3,0,2,0c0.2,0,0.4-0.1,0.5-0.2c-0.2-12-0.5-17.9-1-17.9S37.6,43.2,36.9,55.2L36.9,55.2z"
			/>
		<path class="st5" d="M47.2,36.1c0-0.2,0-0.4,0-0.6l0,0c-0.9,0.1-2.2,0.3-3.6,0.1c-1.3-0.1-2.2-0.4-2.2-0.2c-0.1,0.2,1.4,1,3,1.3
			c1.2,0.2,2.2,0.2,2.8,0L47.2,36.1C47.2,36.2,47.2,36.1,47.2,36.1z"/>
		<path class="st5" d="M45.8,56.6c-0.3,0.1-2.3,0.4-3.8,0.6c-0.5,0.1-0.7,0.1-1.2,0.2c-0.9,0.1-1.2,0-1.3,0.1c0,0.2,2.1,0.7,4.4,0.8
			c0.7,0,1.3,0,1.7,0"/>
		<path class="st4" d="M36.3,33.1c1,0.2,2.2,0.3,3.3,0.4c2.8,0.2,5.3,0.1,7.4-0.1"/>
		<path class="st5" d="M35,55.2c1.6,0.2,2.9,0.2,4,0.2c1.6,0,3.4-0.1,5.8-0.6c0.5-0.2,1-0.2,1.3-0.4"/>
	</g>
	<g>
		<path class="st6" d="M47.9,53.8c-0.3-0.4,2.1-2.6,2.9-3.3c1.4-1.3,2.6-2.2,3.5-2.7s1.5-0.9,2.3-1.3c1.3-0.6,1.9-1,2-0.9
			c0.3,0.3-1.8,2.8-4.3,4.8C51.5,52.5,48.2,54.1,47.9,53.8z"/>
		<path class="st4" d="M48.5,55c0.3-0.4,2.5,0.8,3.6,1.4c1.5,0.8,3.4,1.9,5.3,3.7c0.7,0.6,1.4,1.3,2.1,2.1c0,0.1,0.1,0.1,0.1,0.2
			c0,0.2-0.3,0.2-0.4,0.1c-2.8-1.2-5.8-2.5-8.1-4.5C49.8,57,48.2,55.4,48.5,55z"/>
	</g>
	<g>
		<path class="st4" d="M22.9,22.2c0,0-3.4,3-5.6,1.4C17.3,23.5,19.8,20.4,22.9,22.2z"/>
		<path class="st7" d="M23.9,31.1c0,0-1.7-3.2,0.1-6.1C24,24.9,26.1,27,23.9,31.1z"/>
		<path class="st6" d="M17,32.7c-0.2-1.6,1.3-4,2.2-5.2c1.1-1.6,2.5-3.1,4.2-4.1c-0.5,0.4-0.6,1.7-0.8,2.3c-0.3,1-0.7,1.9-1.3,2.7
			C20.3,29.9,18.7,32.2,17,32.7z"/>
	</g>
	<g>
		<path class="st8" d="M28.6,58.9c1.5,2.9-1.3,6.7-1.3,6.7C25.7,61.7,28.6,58.9,28.6,58.9z"/>
		<path class="st6" d="M27.8,57c-1.4,4.4-8,7.1-8,7.1C22.1,58.3,27.8,57,27.8,57z"/>
	</g>
	<g>
		<g>
			<path class="st9" d="M62.7,39c0,0-8.3-0.3-12-3.9C50.7,34.9,57.4,34.3,62.7,39z"/>
			<path class="st10" d="M52.7,25c0,0,0.2,5.7-3,6.8C49.7,31.8,48.6,26.8,52.7,25z"/>
		</g>
		<path class="st11" d="M61.3,31.8c0,0-6,3.8-11,1.4C50.3,33.2,54.5,29.2,61.3,31.8z"/>
	</g>
	<path class="st12" d="M28.1,37c1.1,0.1,2.5,0.1,4.3-0.3c1.7-0.4,3.1-0.9,4-1.4"/>
	<path class="st13" d="M31.2,57.4c0.5,0.1,1,0.1,1.6,0.1c1,0,1.8-0.2,2.3-0.4"/>
</g>
<g>
	<g>
		<path class="st14" d="M105.2,49.5c-1.6,1.4-4,2.2-7.2,2.2c-3.5,0-6-0.8-7.5-2.5c-1.6-1.7-2.2-4-2.2-7v-11h1.8v11
			c0,2.7,0.7,4.7,2,6c1.3,1.2,3.2,1.8,5.8,1.8c2.9,0,4.9-0.7,6.1-2s1.7-3.2,1.7-5.9v-11h1.8v11C107.5,45.6,106.8,48.1,105.2,49.5z"
			/>
		<path class="st14" d="M133.7,31.2v20h-2.2l-15-17.7v17.7h-1.8v-20h2.2l14.9,17.7V31.2H133.7z"/>
		<path class="st14" d="M158.4,42.6c0.8,0.9,1.2,2,1.2,3.2c0,1.6-0.7,3-1.8,3.9c-1.2,1-2.9,1.4-4.9,1.4h-11.4v-20h10.8
			c1.9,0,3.5,0.5,4.7,1.4c1.2,0.9,1.7,2.2,1.7,3.6c0,1-0.3,2-0.9,2.7c-0.5,0.8-1.4,1.3-2.5,1.7C156.6,41.1,157.6,41.7,158.4,42.6z
			 M155.5,33.7c-0.8-0.7-1.9-1-3.5-1h-8.8v7.5h9.2c1.4,0,2.5-0.4,3.2-1c0.8-0.6,1.2-1.6,1.2-2.7C156.7,35.3,156.3,34.3,155.5,33.7z
			 M156.3,48.7c0.9-0.8,1.3-1.7,1.3-3c0-1.3-0.4-2.2-1.3-3c-0.9-0.8-2.1-1-3.8-1h-9.4v8.1h9.4C154.1,49.8,155.4,49.4,156.3,48.7z"/>
		<path class="st14" d="M180.2,45.7h-12.7l-2.7,5.5h-1.9l10.1-20h1.9l10.1,20h-2L180.2,45.7z M179.4,44.3L173.8,33l-5.7,11.3H179.4z
			"/>
		<path class="st14" d="M214.1,31.2v20h-1.8V34l-9.2,17.2h-1.7L192,33.9v17.3h-1.8v-20h2.2l9.8,18.2l9.8-18.2H214.1z"/>
		<path class="st14" d="M238.8,42.6c0.8,0.9,1.2,2,1.2,3.2c0,1.6-0.7,3-1.8,3.9c-1.2,1-2.9,1.4-4.9,1.4h-11.4v-20h10.8
			c1.9,0,3.5,0.5,4.7,1.4s1.7,2.2,1.7,3.6c0,1-0.3,2-0.9,2.7c-0.5,0.8-1.4,1.3-2.5,1.7C237,41.1,238.1,41.7,238.8,42.6z M236,33.7
			c-0.8-0.7-1.9-1-3.5-1h-8.8v7.5h9.2c1.4,0,2.5-0.4,3.2-1c0.8-0.6,1.2-1.6,1.2-2.7C237.3,35.3,236.8,34.3,236,33.7z M236.8,48.7
			c0.9-0.8,1.3-1.7,1.3-3c0-1.3-0.4-2.2-1.3-3c-0.9-0.8-2.1-1-3.8-1h-9.4v8.1h9.4C234.7,49.8,235.9,49.4,236.8,48.7z"/>
		<path class="st14" d="M262.8,49.5c-1.6,1.4-4,2.2-7.2,2.2c-3.5,0-6-0.8-7.5-2.5c-1.4-1.7-2.2-4-2.2-7v-11h1.8v11
			c0,2.7,0.7,4.7,2,6c1.3,1.2,3.2,1.8,5.8,1.8c2.9,0,4.9-0.7,6.1-2c1.2-1.3,1.7-3.2,1.7-5.9v-11h1.8v11
			C265.1,45.6,264.3,48.1,262.8,49.5z M258.9,24.4l1.2,0.9l-4.6,4.5l-1-0.9L258.9,24.4z"/>
	</g>
</g>
</svg>
