<?xml version="1.0" encoding="utf-8"?>
<!-- Generator: Adobe Illustrator 25.2.1, SVG Export Plug-In . SVG Version: 6.00 Build 0)  -->
<svg version="1.1" id="Capa_1" xmlns="http://www.w3.org/2000/svg" xmlns:xlink="http://www.w3.org/1999/xlink" x="0px" y="0px"
	 viewBox="0 0 270 80" style="enable-background:new 0 0 270 80;" xml:space="preserve">
<style type="text/css">
	.st0{fill:#009C48;stroke:#FFFFFF;stroke-width:0.25;stroke-miterlimit:10;}
	.st1{fill:#FFFFFF;stroke:#FFFFFF;stroke-width:3;stroke-miterlimit:10;}
	.st2{fill:#94C131;stroke:#FFFFFF;stroke-miterlimit:10;}
	.st3{fill:#FFFFFF;stroke:#FFFFFF;stroke-width:0.75;stroke-miterlimit:10;}
	.st4{fill:#58B577;stroke:#FFFFFF;stroke-miterlimit:10;}
	.st5{fill:#FFFFFF;stroke:#FFFFFF;stroke-miterlimit:10;}
	.st6{fill:#88B153;stroke:#FFFFFF;stroke-miterlimit:10;}
	.st7{fill:#009946;stroke:#FFFFFF;stroke-miterlimit:10;}
	.st8{fill:#4B8739;stroke:#FFFFFF;stroke-miterlimit:10;}
	.st9{fill:#10813A;stroke:#FFFFFF;stroke-miterlimit:10;}
	.st10{fill:#009A46;stroke:#FFFFFF;stroke-miterlimit:10;}
	.st11{fill:#89B254;stroke:#FFFFFF;stroke-miterlimit:10;}
	.st12{fill:none;stroke:#FFFFFF;stroke-miterlimit:10;}
	.st13{fill:#57B57B;stroke:#FFFFFF;stroke-miterlimit:10;}
	.st14{fill:#FFFFFF;}
</style>
<g>
	<path class="st0" d="M30.6,72.6"/>
	<g>
		<path class="st1" d="M78.6,40.3c0,4.6-1,9.3-2.9,13.6S71,62,67.6,65.2c-3.4,3.1-7.4,5.7-11.7,7.4s-9.1,2.6-13.8,2.7
			c-9.4,0.1-18.9-3.3-25.9-9.7c-3.5-3.2-6.4-7.1-8.4-11.4s-3-9.1-3-13.8s1.1-9.5,3-13.8s4.9-8.3,8.4-11.4c7-6.4,16.6-9.8,25.9-9.7
			c4.7,0.1,9.4,1,13.8,2.7c4.4,1.8,8.4,4.3,11.7,7.5c3.3,3.1,6.2,7,8.1,11.2C77.6,31.1,78.6,35.7,78.6,40.3z M78.6,40.3
			c0-4.6-1.1-9.3-3-13.5c-2-4.2-4.8-8-8.2-11.2C60.5,9.4,51.2,6,42,6.1c-4.6,0.1-9.2,1-13.4,2.7c-4.3,1.7-8.2,4.2-11.5,7.3
			s-6.1,6.8-7.9,11c-1.9,4.1-2.8,8.6-2.8,13.1s1,9.2,2.8,13.4c1.9,4.1,4.6,7.9,7.9,11c3.3,3.1,7.3,5.6,11.5,7.3
			c4.3,1.7,8.8,2.6,13.4,2.7c9.3,0.1,18.5-3.2,25.4-9.5c3.4-3.1,6.2-6.9,8.2-11.2C77.6,49.6,78.6,45,78.6,40.3z"/>
	</g>
	<path class="st2" d="M34.4,75.9c-1-10.7-2.1-19.4-3-25.6c-0.8-5.5-1.7-11-2.8-17.8c-0.5-2.5-0.8-5.2-1.3-7.7
		c-0.2-1-1.7-6.2-0.9-6.9c0.1-0.1,0.3-0.2,0.5-0.2c2.3-0.5,4.8-0.7,7-0.2c1.8,0.5,1.6,1.4,1.9,3.2c0.6,4.3,1.3,8.6,2,12.9
		c2.3,15,2.8,18.3,3.5,23.6c0.6,4.6,1.4,11.2,2.1,19.5"/>
	<path class="st3" d="M34.5,57.3l1.2-0.1c-2.2-11.1-3.5-16.6-3.8-16.6c-0.3,0.1,0.5,5.7,2.2,16.7C34.3,57.3,34.4,57.3,34.5,57.3z"/>
	<path class="st3" d="M31.4,36.8c0.1,0,0.1,0,0.2,0H32c0.3-0.1,0.5-0.1,0.7-0.2c-2.5-10.7-4-15.9-4.2-15.8c-0.3,0.1,0.6,5.5,2.7,16
		C31.2,36.7,31.3,36.7,31.4,36.8z"/>
	<path class="st3" d="M37.2,38.1c-0.7,0.3-1.7,0.5-3,0.6c-0.9,0.1-1.4-0.1-1.4,0c-0.1,0.2,1.5,1.2,3.3,1c0.4-0.1,0.7-0.2,0.9-0.3"/>
	<path class="st3" d="M36.2,75.9c0.3,0,0.5,0,0.7,0s0.4-0.1,0.5-0.2c0.1,0,0.1,0,0.2,0c-1.8-10.7-2.9-16-3.1-16
		c-0.3,0,0.2,5.4,1.3,16.1C36,75.8,36.1,75.9,36.2,75.9z"/>
	<g>
		<path class="st4" d="M34.4,75.3c0.8-7.1,1.4-14.1,2-21.2c0.5-7.2,1-14.4,1.3-21.6c0.3-6.5,0.4-13,0.5-19.4c3.5,0,7,0.8,10.3,2.2
			c0.3,0.1,0.5,0.3,0.7,0.5c0,0.4,0,0.8,0,1.1c-0.7,19.7-1.8,39.3-3.2,59c0,0.3-5.3,0.2-5.8,0.2c-2-0.1-4.1-0.3-6.1-0.5"/>
		<path class="st5" d="M36.4,75.9l2.8,0.2c0-12.2-0.3-17.6-0.7-17.6C38.1,58.5,37.4,63.7,36.4,75.9C36.2,75.9,36.2,75.9,36.4,75.9z"
			/>
		<path class="st5" d="M39.9,33.3c0.1,0,0.2,0,0.3,0c0.4,0,0.6,0,1,0c0.2,0,0.5-0.1,0.6-0.2c-0.3-10.5-0.6-15.8-1.1-15.8
			c-0.4,0-0.8,5.3-1.3,15.9C39.7,33.2,39.8,33.2,39.9,33.3z"/>
		<path class="st5" d="M38.1,55.1c0.6,0,1.3,0,2,0c0.2,0,0.4-0.1,0.5-0.2c-0.2-12-0.5-17.9-1-17.9S38.8,43.1,38.1,55.1L38.1,55.1z"
			/>
		<path class="st5" d="M48.4,36c0-0.2,0-0.4,0-0.6l0,0c-0.9,0.1-2.2,0.3-3.6,0.1c-1.3-0.1-2.2-0.4-2.2-0.2c-0.1,0.2,1.4,1,3,1.3
			c1.2,0.2,2.2,0.2,2.8,0V36C48.4,36.1,48.4,36,48.4,36z"/>
		<path class="st5" d="M47,56.5c-0.3,0.1-2.3,0.4-3.8,0.6c-0.5,0.1-0.7,0.1-1.2,0.2c-0.9,0.1-1.2,0-1.3,0.1c0,0.2,2.1,0.7,4.4,0.8
			c0.7,0,1.3,0,1.7,0"/>
		<path class="st4" d="M37.5,33c1,0.2,2.2,0.3,3.3,0.4c2.8,0.2,5.3,0.1,7.4-0.1"/>
		<path class="st5" d="M36.2,55.1c1.6,0.2,2.9,0.2,4,0.2c1.6,0,3.4-0.1,5.8-0.6c0.5-0.2,1-0.2,1.3-0.4"/>
	</g>
	<g>
		<path class="st6" d="M49.1,53.7c-0.3-0.4,2.1-2.6,2.9-3.3c1.4-1.3,2.6-2.2,3.5-2.7s1.5-0.9,2.3-1.3c1.3-0.6,1.9-1,2-0.9
			c0.3,0.3-1.8,2.8-4.3,4.8C52.7,52.4,49.4,54,49.1,53.7z"/>
		<path class="st4" d="M49.7,54.9c0.3-0.4,2.5,0.8,3.6,1.4c1.5,0.8,3.4,1.9,5.3,3.7c0.7,0.6,1.4,1.3,2.1,2.1c0,0.1,0.1,0.1,0.1,0.2
			c0,0.2-0.3,0.2-0.4,0.1c-2.8-1.2-5.8-2.5-8.1-4.5C51,56.9,49.4,55.3,49.7,54.9z"/>
	</g>
	<g>
		<path class="st4" d="M24.1,22.1c0,0-3.4,3-5.6,1.4C18.5,23.4,21,20.3,24.1,22.1z"/>
		<path class="st7" d="M25.1,31c0,0-1.7-3.2,0.1-6.1C25.2,24.8,27.3,26.9,25.1,31z"/>
		<path class="st6" d="M18.2,32.6c-0.2-1.6,1.3-4,2.2-5.2c1.1-1.6,2.5-3.1,4.2-4.1c-0.5,0.4-0.6,1.7-0.8,2.3c-0.3,1-0.7,1.9-1.3,2.7
			C21.5,29.8,19.9,32.1,18.2,32.6z"/>
	</g>
	<g>
		<path class="st8" d="M29.8,58.8c1.5,2.9-1.3,6.7-1.3,6.7C26.9,61.6,29.8,58.8,29.8,58.8z"/>
		<path class="st6" d="M29,56.9c-1.4,4.4-8,7.1-8,7.1C23.3,58.2,29,56.9,29,56.9z"/>
	</g>
	<g>
		<g>
			<path class="st9" d="M63.9,38.9c0,0-8.3-0.3-12-3.9C51.9,34.8,58.6,34.2,63.9,38.9z"/>
			<path class="st10" d="M53.9,24.9c0,0,0.2,5.7-3,6.8C50.9,31.7,49.8,26.7,53.9,24.9z"/>
		</g>
		<path class="st11" d="M62.5,31.7c0,0-6,3.8-11,1.4C51.5,33.1,55.7,29.1,62.5,31.7z"/>
	</g>
	<path class="st12" d="M29.3,36.9c1.1,0.1,2.5,0.1,4.3-0.3c1.7-0.4,3.1-0.9,4-1.4"/>
	<path class="st13" d="M32.4,57.3c0.5,0.1,1,0.1,1.6,0.1c1,0,1.8-0.2,2.3-0.4"/>
</g>
<g>
	<g>
		<path class="st14" d="M106.4,49.4c-1.6,1.4-4,2.2-7.2,2.2c-3.5,0-6-0.8-7.5-2.5c-1.6-1.7-2.2-4-2.2-7v-11h1.8v11
			c0,2.7,0.7,4.7,2,6c1.3,1.2,3.2,1.8,5.8,1.8c2.9,0,4.9-0.7,6.1-2s1.7-3.2,1.7-5.9V31h1.8v11C108.7,45.5,108,48,106.4,49.4z"/>
		<path class="st14" d="M134.9,31.1v20h-2.2l-15-17.7v17.7h-1.8v-20h2.2L133,48.8V31.1H134.9z"/>
		<path class="st14" d="M159.6,42.5c0.8,0.9,1.2,2,1.2,3.2c0,1.6-0.7,3-1.8,3.9c-1.2,1-2.9,1.4-4.9,1.4h-11.4V31h10.8
			c1.9,0,3.5,0.5,4.7,1.4s1.7,2.2,1.7,3.6c0,1-0.3,2-0.9,2.7c-0.5,0.8-1.4,1.3-2.5,1.7C157.8,41,158.8,41.6,159.6,42.5z M156.7,33.6
			c-0.8-0.7-1.9-1-3.5-1h-8.8v7.5h9.2c1.4,0,2.5-0.4,3.2-1c0.8-0.6,1.2-1.6,1.2-2.7C157.9,35.2,157.5,34.2,156.7,33.6z M157.5,48.6
			c0.9-0.8,1.3-1.7,1.3-3s-0.4-2.2-1.3-3c-0.9-0.8-2.1-1-3.8-1h-9.4v8.1h9.4C155.3,49.7,156.6,49.3,157.5,48.6z"/>
		<path class="st14" d="M181.4,45.6h-12.7l-2.7,5.5h-1.9l10.1-20h1.9l10.1,20h-2L181.4,45.6z M180.6,44.2L175,32.9l-5.7,11.3H180.6z
			"/>
		<path class="st14" d="M215.3,31.1v20h-1.8V33.9l-9.2,17.2h-1.7l-9.4-17.3v17.3h-1.8v-20h2.2l9.8,18.2l9.8-18.2H215.3z"/>
		<path class="st14" d="M240,42.5c0.8,0.9,1.2,2,1.2,3.2c0,1.6-0.7,3-1.8,3.9c-1.2,1-2.9,1.4-4.9,1.4h-11.4V31h10.8
			c1.9,0,3.5,0.5,4.7,1.4s1.7,2.2,1.7,3.6c0,1-0.3,2-0.9,2.7c-0.5,0.8-1.4,1.3-2.5,1.7C238.2,41,239.3,41.6,240,42.5z M237.2,33.6
			c-0.8-0.7-1.9-1-3.5-1h-8.8v7.5h9.2c1.4,0,2.5-0.4,3.2-1c0.8-0.6,1.2-1.6,1.2-2.7C238.5,35.2,238,34.2,237.2,33.6z M238,48.6
			c0.9-0.8,1.3-1.7,1.3-3s-0.4-2.2-1.3-3c-0.9-0.8-2.1-1-3.8-1h-9.4v8.1h9.4C235.9,49.7,237.1,49.3,238,48.6z"/>
		<path class="st14" d="M264,49.4c-1.6,1.4-4,2.2-7.2,2.2c-3.5,0-6-0.8-7.5-2.5c-1.4-1.7-2.2-4-2.2-7v-11h1.8v11c0,2.7,0.7,4.7,2,6
			c1.3,1.2,3.2,1.8,5.8,1.8c2.9,0,4.9-0.7,6.1-2s1.7-3.2,1.7-5.9V31h1.8v11C266.3,45.5,265.5,48,264,49.4z M260.1,24.3l1.2,0.9
			l-4.6,4.5l-1-0.9L260.1,24.3z"/>
	</g>
</g>
</svg>
