<?xml version="1.0" encoding="utf-8"?>
<!-- Generator: Adobe Illustrator 25.2.1, SVG Export Plug-In . SVG Version: 6.00 Build 0)  -->
<svg version="1.1" id="Capa_1" xmlns="http://www.w3.org/2000/svg" xmlns:xlink="http://www.w3.org/1999/xlink" x="0px" y="0px"
	 viewBox="0 0 270 80" style="enable-background:new 0 0 270 80;" xml:space="preserve">
<style type="text/css">
	.st0{fill:#009C48;stroke:#FFFFFF;stroke-width:0.25;stroke-miterlimit:10;}
	.st1{fill:#FFFFFF;stroke:#FFFFFF;stroke-width:3;stroke-miterlimit:10;}
	.st2{fill:#66B2B2;stroke:#FFFFFF;stroke-width:1.5;stroke-miterlimit:10;}
	.st3{fill:#2A5F5B;stroke:#FFFFFF;stroke-width:0.1;stroke-miterlimit:10;}
	.st4{fill:#2A5F5B;stroke:#FFFFFF;stroke-width:0.2;stroke-miterlimit:10;}
	.st5{fill:#CFC4B0;stroke:#FFFFFF;stroke-width:1.5;stroke-miterlimit:10;}
	.st6{fill:#58B577;stroke:#FFFFFF;stroke-miterlimit:10;}
	.st7{fill:#FFFFFF;stroke:#FFFFFF;stroke-miterlimit:10;}
	.st8{fill:none;stroke:#FFFFFF;stroke-miterlimit:10;}
	.st9{fill:#57B57B;stroke:#FFFFFF;stroke-miterlimit:10;}
	.st10{fill:#FFFFFF;}
</style>
<g>
	<g>
		<path class="st0" d="M30.6,71.8"/>
		<g>
			<path class="st1" d="M78.6,39.5c0,4.6-1,9.3-2.9,13.6s-4.7,8.1-8.1,11.3c-3.4,3.1-7.4,5.7-11.7,7.4s-9.1,2.6-13.8,2.7
				c-9.4,0.1-18.9-3.3-25.9-9.7c-3.5-3.2-6.4-7.1-8.4-11.4s-3-9.1-3-13.8s1.1-9.5,3-13.8s4.9-8.3,8.4-11.4c7-6.4,16.6-9.8,25.9-9.7
				c4.7,0.1,9.4,1,13.8,2.7c4.4,1.8,8.4,4.3,11.7,7.5c3.3,3.1,6.2,7,8.1,11.2S78.6,34.9,78.6,39.5z M78.6,39.5c0-4.6-1.1-9.3-3-13.5
				c-2-4.2-4.8-8-8.2-11.2C60.5,8.6,51.2,5.2,42,5.3c-4.6,0.1-9.2,1-13.4,2.7c-4.3,1.7-8.2,4.2-11.5,7.3s-6.1,6.8-7.9,11
				c-1.9,4.1-2.8,8.6-2.8,13.1s1,9.2,2.8,13.4c1.9,4.1,4.6,7.9,7.9,11s7.3,5.6,11.5,7.3c4.3,1.7,8.8,2.6,13.4,2.7
				c9.3,0.1,18.5-3.2,25.4-9.5c3.4-3.1,6.2-6.9,8.2-11.2S78.6,44.2,78.6,39.5z"/>
		</g>
		<path class="st2" d="M34.4,75c-1-10.7-2.1-19.4-3-25.6c-0.8-5.5-1.7-11-2.8-17.8c-0.5-2.5-0.8-5.2-1.3-7.7c-0.2-1-1.7-6.2-0.9-6.9
			c0.1-0.1,0.3-0.2,0.5-0.2c2.3-0.5,4.8-0.7,7-0.2c1.8,0.5,1.6,1.4,1.9,3.2c0.6,4.3,1.3,8.6,2,12.9c2.3,15,2.8,18.3,3.5,23.6
			c0.6,4.6,1.4,11.2,2.1,19.5"/>
		<path class="st3" d="M34.5,56.5l1.2-0.1c-2.2-11.1-3.5-16.6-3.8-16.6c-0.3,0.1,0.5,5.7,2.2,16.7C34.3,56.5,34.4,56.5,34.5,56.5z"
			/>
		<path class="st3" d="M31.4,36c0.1,0,0.1,0,0.2,0H32c0.3-0.1,0.5-0.1,0.7-0.2c-2.5-10.7-4-15.9-4.2-15.8c-0.3,0.1,0.6,5.5,2.7,16
			C31.2,35.9,31.3,35.9,31.4,36z"/>
		<path class="st4" d="M37.2,37.3c-0.7,0.3-1.7,0.5-3,0.6c-0.9,0.1-1.4-0.1-1.4,0c-0.1,0.2,1.5,1.2,3.3,1c0.4-0.1,0.7-0.2,0.9-0.3"
			/>
		<path class="st3" d="M36.2,75.1c0.3,0,0.5,0,0.7,0s0.4-0.1,0.5-0.2c0.1,0,0.1,0,0.2,0c-1.8-10.7-2.9-16-3.1-16
			c-0.3,0,0.2,5.4,1.3,16.1C36,75,36.1,75.1,36.2,75.1z"/>
		<g>
			<path class="st5" d="M34.4,74.5c0.8-7.1,1.4-14.1,2-21.2c0.5-7.2,1-14.4,1.3-21.6c0.3-6.5,0.4-13,0.5-19.4c3.5,0,7,0.8,10.3,2.2
				c0.3,0.1,0.5,0.3,0.7,0.5c0,0.4,0,0.8,0,1.1c-0.7,19.7-1.8,39.3-3.2,59c0,0.3-5.3,0.2-5.8,0.2c-2-0.1-4.1-0.3-6.1-0.5"/>
			<path class="st3" d="M36.2,74.3l2.8,0.2c0-12.2-0.3-17.6-0.7-17.6S37.2,62.1,36.2,74.3C36,74.3,36,74.3,36.2,74.3z"/>
			<path class="st3" d="M39.9,32.5c0.1,0,0.2,0,0.3,0c0.4,0,0.6,0,1,0c0.2,0,0.5-0.1,0.6-0.2c-0.3-10.5-0.6-15.8-1.1-15.8
				c-0.4,0-0.8,5.3-1.3,15.9C39.7,32.4,39.8,32.4,39.9,32.5z"/>
			<path class="st3" d="M38.1,54.3c0.6,0,1.3,0,2,0c0.2,0,0.4-0.1,0.5-0.2c-0.2-12-0.5-17.9-1-17.9S38.8,42.3,38.1,54.3L38.1,54.3z"
				/>
			<path class="st4" d="M47.7,35.1c0-0.2,0-0.4,0-0.6l0,0c-0.9,0.1-2.2,0.3-3.6,0c-1.3-0.1-2.2-0.4-2.2-0.2c-0.1,0.2,1.4,1,3,1.3
				c1.2,0.2,2.2,0.2,2.8,0L47.7,35.1C47.7,35.2,47.7,35.1,47.7,35.1z"/>
			<path class="st4" d="M46.8,55.6c-0.3,0.1-2.3,0.4-3.8,0.5c-0.5,0.1-0.7,0.1-1.2,0.1c-0.9,0.1-1.2,0-1.3,0.1
				c0,0.2,2.1,0.7,4.4,0.8c0.7,0,1.3,0,1.7,0"/>
			<path class="st6" d="M37.5,32.2c1,0.2,2.2,0.3,3.3,0.4c2.8,0.2,5.3,0.1,7.4-0.1"/>
			<path class="st7" d="M36.2,54.3c1.6,0.2,2.9,0.2,4,0.2c1.6,0,3.4-0.1,5.8-0.6c0.5-0.2,1-0.2,1.3-0.4"/>
		</g>
		<g>
			<path class="st7" d="M49.1,52.9c-0.3-0.4,2.1-2.6,2.9-3.3c1.4-1.3,2.6-2.2,3.5-2.7s1.5-0.9,2.3-1.3c1.3-0.6,1.9-1,2-0.9
				c0.3,0.3-1.8,2.8-4.3,4.8C52.7,51.6,49.4,53.2,49.1,52.9z"/>
			<path class="st7" d="M49.7,54.1c0.3-0.4,2.5,0.8,3.6,1.4c1.5,0.8,3.4,1.9,5.3,3.7c0.7,0.6,1.4,1.3,2.1,2.1c0,0.1,0.1,0.1,0.1,0.2
				c0,0.2-0.3,0.2-0.4,0.1c-2.8-1.2-5.8-2.5-8.1-4.5C51,56.1,49.4,54.5,49.7,54.1z"/>
		</g>
		<g>
			<path class="st7" d="M24.1,21.3c0,0-3.4,3-5.6,1.4C18.5,22.6,21,19.5,24.1,21.3z"/>
			<path class="st7" d="M25.1,30.2c0,0-1.7-3.2,0.1-6.1C25.2,24,27.3,26.1,25.1,30.2z"/>
			<path class="st7" d="M18.2,31.8c-0.2-1.6,1.3-4,2.2-5.2c1.1-1.6,2.5-3.1,4.2-4.1c-0.5,0.4-0.6,1.7-0.8,2.3
				c-0.3,1-0.7,1.9-1.3,2.7C21.5,29,19.9,31.3,18.2,31.8z"/>
		</g>
		<g>
			<path class="st7" d="M29.8,58c1.5,2.9-1.3,6.7-1.3,6.7C26.9,60.8,29.8,58,29.8,58z"/>
			<path class="st7" d="M29,56.1c-1.4,4.4-8,7.1-8,7.1C23.3,57.4,29,56.1,29,56.1z"/>
		</g>
		<g>
			<g>
				<path class="st7" d="M63.9,38.1c0,0-8.3-0.3-12-3.9C51.9,34,58.6,33.4,63.9,38.1z"/>
				<path class="st7" d="M53.9,24.1c0,0,0.2,5.7-3,6.8C50.9,30.9,49.8,25.9,53.9,24.1z"/>
			</g>
			<path class="st7" d="M62.5,30.9c0,0-6,3.8-11,1.4C51.5,32.3,55.7,28.3,62.5,30.9z"/>
		</g>
		<path class="st8" d="M29.3,36.1c1.1,0.1,2.5,0.1,4.3-0.3c1.7-0.4,3.1-0.9,4-1.4"/>
		<path class="st9" d="M32.4,56.5c0.5,0.1,1,0.1,1.6,0.1c1,0,1.8-0.2,2.3-0.4"/>
	</g>
	<g>
		<g>
			<path class="st10" d="M106.4,48.6c-1.6,1.4-4,2.2-7.2,2.2c-3.5,0-6-0.8-7.5-2.5c-1.6-1.7-2.2-4-2.2-7v-11h1.8v11
				c0,2.7,0.7,4.7,2,6c1.3,1.2,3.2,1.8,5.8,1.8c2.9,0,4.9-0.7,6.1-2s1.7-3.2,1.7-5.9v-11h1.8v11C108.7,44.7,108,47.2,106.4,48.6z"/>
			<path class="st10" d="M134.9,30.3v20h-2.2l-15-17.7v17.7h-1.8v-20h2.2L133,48V30.3H134.9z"/>
			<path class="st10" d="M159.6,41.7c0.8,0.9,1.2,2,1.2,3.2c0,1.6-0.7,3-1.8,3.9c-1.2,1-2.9,1.4-4.9,1.4h-11.4v-20h10.8
				c1.9,0,3.5,0.5,4.7,1.4s1.7,2.2,1.7,3.6c0,1-0.3,2-0.9,2.7c-0.5,0.8-1.4,1.3-2.5,1.7C157.8,40.2,158.8,40.8,159.6,41.7z
				 M156.7,32.8c-0.8-0.7-1.9-1-3.5-1h-8.8v7.5h9.2c1.4,0,2.5-0.4,3.2-1c0.8-0.6,1.2-1.6,1.2-2.7C157.9,34.4,157.5,33.4,156.7,32.8z
				 M157.5,47.8c0.9-0.8,1.3-1.7,1.3-3s-0.4-2.2-1.3-3c-0.9-0.8-2.1-1-3.8-1h-9.4v8.1h9.4C155.3,48.9,156.6,48.5,157.5,47.8z"/>
			<path class="st10" d="M181.4,44.8h-12.7l-2.7,5.5h-1.9l10.1-20h1.9l10.1,20h-2L181.4,44.8z M180.6,43.4L175,32.1l-5.7,11.3
				C169.3,43.4,180.6,43.4,180.6,43.4z"/>
			<path class="st10" d="M215.3,30.3v20h-1.8V33.1l-9.2,17.2h-1.7L193.2,33v17.3h-1.8v-20h2.2l9.8,18.2l9.8-18.2H215.3z"/>
			<path class="st10" d="M240,41.7c0.8,0.9,1.2,2,1.2,3.2c0,1.6-0.7,3-1.8,3.9c-1.2,1-2.9,1.4-4.9,1.4h-11.4v-20h10.8
				c1.9,0,3.5,0.5,4.7,1.4s1.7,2.2,1.7,3.6c0,1-0.3,2-0.9,2.7c-0.5,0.8-1.4,1.3-2.5,1.7C238.2,40.2,239.3,40.8,240,41.7z
				 M237.2,32.8c-0.8-0.7-1.9-1-3.5-1h-8.8v7.5h9.2c1.4,0,2.5-0.4,3.2-1c0.8-0.6,1.2-1.6,1.2-2.7C238.5,34.4,238,33.4,237.2,32.8z
				 M238,47.8c0.9-0.8,1.3-1.7,1.3-3s-0.4-2.2-1.3-3c-0.9-0.8-2.1-1-3.8-1h-9.4v8.1h9.4C235.9,48.9,237.1,48.5,238,47.8z"/>
			<path class="st10" d="M264,48.6c-1.6,1.4-4,2.2-7.2,2.2c-3.5,0-6-0.8-7.5-2.5c-1.4-1.7-2.2-4-2.2-7v-11h1.8v11c0,2.7,0.7,4.7,2,6
				c1.3,1.2,3.2,1.8,5.8,1.8c2.9,0,4.9-0.7,6.1-2s1.7-3.2,1.7-5.9v-11h1.8v11C266.3,44.7,265.5,47.2,264,48.6z M260.1,23.5l1.2,0.9
				l-4.6,4.5l-1-0.9L260.1,23.5z"/>
		</g>
	</g>
</g>
</svg>
